<svg width="209" height="209" viewBox="0 0 209 209" fill="none" xmlns="http://www.w3.org/2000/svg">
<path fill-rule="evenodd" clip-rule="evenodd" d="M141.8 0H67.2C29.9 0 0 29.8 0 67.2V141.8C0 179.1 29.8 209 67.2 209H141.8C179.1 209 209 179.2 209 141.8V67.2C209 29.9 179.1 0 141.8 0Z" fill="url(#paint0_linear_411_10)"/>
<path fill-rule="evenodd" clip-rule="evenodd" d="M48.3 93.7C41.5 100.5 38.7 110.3 41.1 119.5C43.4 128.6 50.5 135.7 59.6 138C68.7 140.3 78.6 137.6 85.4 130.8L130.8 85.4C137.2 79 147.5 78.9 153.7 85.1C159.9 91.3 159.8 101.6 153.4 108L138.8 122.6L130.5 114.3L124.9 143.7L154.3 138.1L146 129.8L160.6 115.2C167.4 108.4 170.2 98.6 167.8 89.4C165.5 80.3 158.4 73.2 149.3 70.9C140.2 68.6 130.3 71.3 123.5 78.1L78.1 123.5C71.7 129.9 61.4001 130 55.2001 123.8C49.0001 117.6 49.1 107.3 55.5 100.9L68.9 87.5L77.2001 95.8L82.8 66.4L53.4 72L61.7001 80.3L48.3 93.7Z" fill="white"/>
<defs>
<linearGradient id="paint0_linear_411_10" x1="208.982" y1="0.0222044" x2="0.0575956" y2="208.947" gradientUnits="userSpaceOnUse">
<stop stop-color="#5F6BFB"/>
<stop offset="1" stop-color="#724DE4"/>
</linearGradient>
</defs>
</svg>
